<svg width="13" height="13" viewBox="0 0 13 13" fill="none" xmlns="http://www.w3.org/2000/svg">
<path d="M6.41783 12.8345C6.93817 12.8345 7.45267 12.8251 7.96017 12.8076C10.5898 12.7149 12.7155 10.5892 12.8083 7.95956C12.8263 7.45206 12.8351 6.93756 12.8351 6.41722C12.8351 5.89689 12.8258 5.38239 12.8083 4.87489C12.7155 2.24522 10.5898 0.119556 7.96017 0.026806C7.45267 0.00872239 6.93817 -2.75738e-05 6.41783 -2.758e-05C5.8975 -2.75862e-05 5.383 0.00930602 4.8755 0.0268059C2.24525 0.119556 0.119583 2.24522 0.0268334 4.87547C0.00875009 5.38297 8.27229e-08 5.89747 7.6518e-08 6.41781C7.03131e-08 6.93814 0.0093334 7.45264 0.0268334 7.96014C0.119583 10.5892 2.24525 12.7149 4.8755 12.8071C5.383 12.8251 5.8975 12.8345 6.41783 12.8345ZM3.72283 8.91389C3.493 8.66597 3.50758 8.27806 3.75608 8.04881L7.29342 4.77106L5.17883 4.55464C5.02483 4.53889 4.8895 4.46714 4.79208 4.36156C4.67658 4.23731 4.613 4.06522 4.63225 3.88264C4.66667 3.54664 4.96708 3.30164 5.30367 3.33664L8.56917 3.67264C8.778 3.67906 8.97108 3.76656 9.11283 3.91997C9.254 4.07222 9.32692 4.27114 9.31817 4.43739L9.40392 7.76239C9.41325 8.10072 9.1455 8.38189 8.80833 8.39064C8.62458 8.39531 8.45833 8.31889 8.34283 8.19464C8.24542 8.08964 8.18417 7.94964 8.18008 7.79447L8.12642 5.66939L4.5885 8.94714C4.34058 9.17697 3.95267 9.16181 3.72283 8.91389Z" fill="white"/>
</svg>
